# xmcd CD database file
#
# Track frame offsets:
#	150
#	15998
#	34006
#	54798
#	85406
#	108214
#	128550
#	162302
#	175366
#	190302
#
# Disc length: 2762 seconds
#
# Revision: 0
# Processed by: cddbd v1.5.1PL0 Copyright (c) Steve Scherf et al.
# Submitted via: CDex 1.51
#
DISCID=710ac80a
DTITLE=Funny Avocado, The - ... on a slow train to Peking
DYEAR=1994
DGENRE=Jazz
TTITLE0=Travelling Light
TTITLE1=Love Me Or Leave Me
TTITLE2=My Baby Just Cares For Me
TTITLE3=Rio De Janeiro Blue
TTITLE4=Mr. Paganini
TTITLE5=Yellow Moon
TTITLE6=Misty
TTITLE7=Billy-A-Dick
TTITLE8=Miss Otis Regrets
TTITLE9=It All Comes Back
EXTD=YEAR: 1994
EXTT0=
EXTT1=
EXTT2=
EXTT3=
EXTT4=
EXTT5=
EXTT6=
EXTT7=
EXTT8=
EXTT9=
PLAYORDER=
